PathFileType	4	(X/Y/Z)	C:\Users\WrightLab\Desktop\Jo\P5V27.trc
DataRate	CameraRate	NumFrames	NumMarkers	Units	OrigDataRate	OrigDataStartFrame	OrigNumFrames
100.00	100.00	       19	19	mm	100.00	512	       819
Frame#	Time	Headset_Front			Headset_Back			Headset_Left			Headset_Right			Left_Shoulder			Right_Shoulder			Sternum			C7			Left Elbow			Right Elbow			Left Wrist			Right Wrist			Left ASIS			Right ASIS			S2			Left Knee			Right Knee			Left Ankle			Right Ankle			
		X1	Y1	Z1	X2	Y2	Z2	X3	Y3	Z3	X4	Y4	Z4	X5	Y5	Z5	X6	Y6	Z6	X7	Y7	Z7	X8	Y8	Z8	X9	Y9	Z9	X10	Y10	Z10	X11	Y11	Z11	X12	Y12	Z12	X13	Y13	Z13	X14	Y14	Z14	X15	Y15	Z15	X16	Y16	Z16	X17	Y17	Z17	X18	Y18	Z18	X19	Y19	Z19	

512	5.110	-451.86307	1396.56165	72.50247							-532.88574	1506.42004	12.25098	-176.75975	1538.48877	-171.82227	-551.46466	1399.43152	-110.94725	-321.93658	1291.33594	-103.32199	-408.12808	1519.16553	-262.66940	-25.78854	1282.55017	-233.25456	-686.08856	1156.81543	-73.82495	-24.32091	1045.27063	-157.55675	-741.21234	1013.88409	123.60284	-117.60693	954.33295	-172.72141	-388.31543	908.25171	-103.44653	-274.92816	1014.52008	-388.52554	-69.67079	501.75397	-205.12782	-432.71860	491.29596	-168.30280	-47.99213	99.06921	-377.15884	-381.45203	93.49388	-248.89528	
513	5.120	-451.63730	1397.13965	70.20153							-532.74304	1507.69287	10.14266	-175.95903	1538.04858	-173.38737	-551.19946	1400.42322	-112.52210	-321.88785	1292.18884	-103.60708	-406.99979	1519.68542	-264.45651	-25.25508	1281.08594	-233.99832	-686.54742	1159.37329	-73.54015	-24.51969	1044.09973	-157.56207	-743.63940	1018.59790	124.52412	-118.13849	953.64362	-172.13844	-388.92645	908.32654	-103.62167	-274.58566	1014.35162	-388.32657	-70.39828	501.25684	-204.63011	-433.31671	491.02310	-168.35315	-48.18048	99.22142	-377.20538	-381.46329	93.48212	-248.91093	
514	5.130	-451.36990	1398.26355	68.42078							-532.61578	1509.28418	7.57761	-175.45950	1538.09937	-174.34103	-550.73431	1402.16272	-114.53262	-321.96759	1293.11206	-105.22828	-405.83505	1519.55530	-265.90198	-25.11553	1280.87183	-233.95360	-687.96539	1162.51709	-73.52436	-25.19481	1043.31616	-157.22627	-746.08655	1023.46179	125.12519	-118.42559	953.69836	-171.90645	-389.70026	908.74451	-103.87725	-274.39032	1014.13275	-388.13519	-71.53849	500.84698	-204.26576	-433.97107	491.08810	-167.91922	-47.83348	98.92110	-377.10263	-381.64633	93.27018	-248.82126	
515	5.140	-451.38605	1400.21655	68.67284							-532.15778	1510.14319	6.16336	-173.13527	1538.00464	-176.32021	-550.27875	1403.50549	-115.62078	-322.19937	1293.25977	-106.58888	-404.40109	1520.09277	-267.47195	-26.15809	1279.85547	-234.68187	-688.87854	1165.58704	-73.57427	-25.33861	1042.28003	-157.43320	-748.68884	1027.80579	127.19902	-119.27220	953.10046	-171.26659	-390.82291	909.36792	-104.24755	-274.18375	1013.57483	-387.52966	-72.03793	500.54453	-203.77129	-435.04483	490.97427	-167.99020	-47.94186	99.06641	-377.16428	-381.78528	93.17999	-248.54688	
516	5.150	-451.02628	1400.92358	66.02084							-531.59344	1511.18848	4.47283	-172.53995	1537.97205	-177.33351	-549.55615	1405.09949	-117.49259	-322.19177	1294.02930	-107.66521	-403.49155	1520.38232	-269.15616	-25.07269	1279.07214	-234.06184	-689.67706	1168.57629	-73.11454	-26.01093	1041.37329	-157.22815	-751.23596	1032.58643	128.36154	-119.79777	952.95050	-171.17558	-391.68295	909.87396	-104.06391	-273.69617	1012.97095	-387.03232	-72.90777	500.42899	-202.87534	-436.21451	491.09814	-166.86351	-47.79892	99.21371	-376.97073	-381.76520	93.15534	-248.55296	
517	5.160	-451.08777	1402.00537	64.69774							-531.24103	1512.26868	2.11237	-171.61320	1537.64197	-178.11664	-548.97339	1406.80713	-119.07655	-321.85477	1294.12341	-108.07480	-402.15558	1520.79688	-271.12372	-25.64069	1277.73718	-234.64946	-690.50964	1171.82898	-73.30351	-25.94274	1039.90125	-156.74146	-754.23431	1038.04089	129.50186	-120.67731	952.03595	-170.16467	-391.88678	910.09717	-103.08246	-273.34256	1012.26923	-386.87851	-73.91115	500.08350	-202.25288	-437.33432	491.17859	-166.61305	-47.70387	98.76316	-377.19498	-381.81879	93.14068	-248.57115	
518	5.170	-450.75754	1402.80359	61.84608							-530.51349	1513.27271	-0.02757	-170.82050	1536.44873	-179.78923	-548.42065	1408.63818	-120.67364	-321.92822	1293.93237	-109.75668	-400.51019	1521.17310	-273.09747	-24.99453	1276.09290	-234.31860	-691.55615	1174.89893	-73.01025	-25.74631	1038.98853	-156.96506	-756.53003	1042.78845	129.94215	-121.21169	951.65167	-169.55113	-392.69336	910.84259	-102.13895	-272.86441	1011.46649	-386.78726	-74.87560	499.99997	-201.05147	-437.45541	491.49487	-166.47736	-47.80255	98.99697	-376.97900	-381.94620	92.99615	-248.88509	
519	5.180	-450.55078	1403.70203	61.39539							-529.32153	1514.11169	-1.22905	-168.77640	1536.75952	-181.65991	-547.51410	1410.18774	-122.17775	-322.15613	1294.27771	-111.81925	-398.97562	1521.48413	-274.24829	-23.90382	1275.67224	-233.65108	-692.18976	1178.23926	-73.62248	-26.13412	1038.03528	-156.55489	-759.24048	1047.41125	130.75711	-121.66288	951.05133	-169.25606	-392.85889	910.97510	-102.26810	-272.72580	1010.89758	-386.65005	-76.07157	499.50702	-200.43582	-439.06781	491.68277	-166.64696	-47.75620	98.81902	-376.83212	-381.98651	92.97584	-248.91092	
520	5.190	-450.08069	1404.77100	60.37689							-528.78363	1515.20337	-3.61686	-167.68652	1536.69812	-181.84195	-546.71075	1411.71912	-123.80531	-321.86691	1294.71399	-111.70715	-397.56372	1521.36670	-275.60333	-23.25854	1274.21558	-234.50661	-692.99646	1181.21399	-73.94206	-26.36575	1037.28162	-156.52127	-761.20703	1053.15735	132.01743	-122.18056	951.03125	-169.01271	-393.69870	911.33618	-102.51506	-272.78976	1010.47876	-386.36032	-76.87012	499.02856	-200.19341	-440.35471	491.87378	-166.56291	-47.55103	98.64806	-377.03687	-382.03351	92.95775	-248.92778	
521	5.200	-451.45908	1403.73669	61.76083							-528.35486	1515.89563	-5.76944	-167.33598	1536.15527	-181.86235	-545.91785	1413.10693	-125.60873	-320.47278	1295.92163	-112.06438	-395.82938	1521.52454	-277.25113	-22.90031	1273.23889	-234.86336	-693.87024	1184.10754	-73.86118	-26.37158	1035.76294	-156.12260	-763.53302	1058.33557	132.26849	-123.04011	950.61444	-168.32570	-395.20108	912.03125	-102.42951	-272.58182	1010.02563	-386.48358	-77.70287	498.87405	-199.65578	-441.81198	492.08749	-165.30606	-48.05339	98.69640	-377.02481	-382.10074	92.90541	-248.97623	
522	5.210	-449.31491	1406.91248	56.39075							-527.60510	1516.73804	-7.83777	-164.51360	1535.78577	-184.80809	-545.12939	1414.93958	-127.18887	-320.47232	1295.51025	-114.29906	-395.03448	1522.26025	-279.94473	-22.31126	1272.27832	-234.35704	-694.80029	1186.95325	-73.76867	-26.36695	1035.01001	-156.03781	-764.72455	1063.33215	132.81921	-123.59921	950.37341	-167.53909	-395.58878	913.00684	-101.55237	-272.26019	1009.59589	-386.35007	-78.43835	498.82700	-198.80437	-442.89566	491.23868	-165.04346	-48.10301	98.65228	-377.04135	-382.11429	92.87286	-248.99373	
523	5.220	-450.31958	1405.99133	58.84489							-526.18481	1517.18726	-9.42380	-163.33105	1534.82336	-185.85808	-544.37988	1415.99976	-128.41710	-319.83472	1296.21667	-114.73289	-393.56186	1522.51929	-280.89297	-21.44255	1270.90906	-234.98819	-695.20428	1189.95886	-74.20658	-26.18942	1033.78662	-155.67798	-765.81317	1068.37659	133.86067	-124.05775	949.94397	-167.28476	-396.84653	913.25018	-100.45643	-272.15628	1009.27368	-386.66354	-79.14037	498.49228	-198.20055	-443.49371	491.19821	-164.89696	-48.13346	98.62664	-377.05081	-382.30652	92.64677	-249.03706	
524	5.230	-449.80396	1406.77734	57.87270							-525.79004	1518.67676	-12.25191	-163.11194	1534.58533	-185.90071	-543.23523	1417.55933	-129.78706	-319.56189	1296.53638	-116.23861	-391.80695	1522.81824	-282.53461	-21.76218	1270.82446	-235.21901	-695.61462	1192.87573	-74.58849	-26.38994	1033.33972	-155.64116	-767.88684	1073.43530	133.89796	-124.31686	949.59210	-166.73691	-397.64307	913.77167	-100.83743	-272.03046	1008.71429	-386.58606	-79.48611	498.49243	-197.26064	-445.03519	491.92319	-164.52428	-48.11682	98.62047	-377.05508	-382.35526	92.62675	-249.05203	
525	5.240	-449.64758	1407.28088	55.53429							-527.95929	1520.06763	-16.11528	-160.13460	1534.75464	-187.67409	-542.27618	1418.83850	-131.41327	-319.33420	1296.54285	-118.34404	-390.32159	1523.04834	-284.10056	-21.12628	1269.61572	-235.48708	-695.81006	1195.95068	-75.14433	-26.66931	1032.17725	-155.04576	-768.69067	1077.65601	134.91769	-124.66158	949.08563	-166.62985	-398.06027	914.81311	-99.74406	-271.90961	1008.10272	-386.77148	-80.50184	498.00848	-197.02634	-446.79941	492.13089	-163.32326	-48.27394	98.22993	-377.19543	-382.35852	92.61422	-249.04623	
526	5.250	-448.78015	1409.38196	54.92426							-524.34406	1520.63220	-15.89387	-159.11562	1533.79163	-189.24829	-541.34216	1420.24146	-132.40312	-318.62195	1296.82361	-119.32172	-388.71469	1523.03467	-285.26627	-20.09103	1268.73291	-235.82684	-696.07184	1198.67773	-75.49602	-26.76882	1031.23474	-155.01466	-770.05115	1081.77161	135.42500	-125.18947	948.92584	-166.25467	-399.68933	915.57727	-99.82311	-271.65991	1007.44897	-386.80975	-81.19913	497.61667	-196.36247	-447.23505	492.69415	-162.82303	-48.38495	98.36120	-377.11710	-382.41486	92.62968	-249.07001	
527	5.260	-448.34543	1410.38586	53.50111							-521.99292	1521.43542	-18.22454	-159.00012	1533.12280	-189.74892	-540.48346	1421.53760	-134.06885	-318.57129	1296.90686	-119.28603	-387.08099	1523.34204	-286.62070	-19.25894	1267.43884	-235.82507	-696.15662	1201.07263	-75.02195	-26.26210	1029.87891	-155.18373	-770.83441	1086.01917	135.29494	-125.82751	948.57202	-165.64909	-400.59460	916.75781	-99.11372	-271.45193	1006.97784	-387.15405	-81.60844	497.73077	-196.13986	-448.48642	492.15402	-161.24023	-48.03853	97.96931	-376.86703	-382.44226	92.61765	-249.07487	
528	5.270	-448.18817	1410.51477	50.93653							-522.18115	1522.86292	-19.71214	-156.07439	1533.32422	-192.07939	-539.58221	1422.97498	-135.08003	-318.18250	1296.69861	-121.21110	-385.36835	1523.50745	-287.70282	-19.15829	1266.34290	-236.09053	-696.50555	1203.98132	-75.30499	-26.43885	1029.22363	-155.00885	-771.73578	1090.59253	135.43648	-126.04014	948.37915	-164.93387	-402.17612	917.34601	-99.07706	-271.04102	1006.56287	-387.06284	-81.81209	497.75299	-195.76060	-449.44827	492.36493	-160.22940	-48.25111	98.01433	-377.05298	-382.47946	92.59802	-249.09380	
529	5.280	-446.75043	1412.11523	45.08589							-521.37341	1523.60498	-21.22278	-155.29408	1533.45947	-192.15344	-538.54010	1424.17004	-136.64970	-317.19418	1297.54517	-121.19419	-383.80795	1523.64233	-289.06433	-19.01073	1265.03967	-235.95074	-696.44580	1206.65662	-75.95086	-26.19961	1028.32458	-155.37241	-772.90076	1093.42053	135.88615	-126.42947	947.80176	-164.73795	-402.62833	917.86115	-99.05021	-270.74408	1006.45575	-387.59467	-82.47831	497.38556	-194.98364	-450.60693	492.42657	-160.39072	-48.23643	98.00798	-377.05716	-382.52277	92.58140	-249.10692	
530	5.290	-446.76349	1412.72656	48.21061							-520.59784	1524.64539	-23.28847	-154.59909	1532.49182	-192.04512	-537.44031	1425.46411	-137.54739	-316.64618	1297.95178	-121.93961	-382.35834	1523.92810	-290.55942	-18.06858	1264.48706	-236.55602	-696.87311	1208.60864	-76.41575	-26.24180	1027.72217	-155.39331	-773.61713	1097.05115	135.33351	-126.72166	947.16309	-164.02927	-404.49957	918.66058	-97.96125	-270.57120	1006.30096	-387.63788	-82.97439	496.90762	-194.33035	-451.38074	492.73471	-158.94942	-47.97168	98.00360	-377.18491	-382.53345	92.57835	-249.09801	
